<mxfile host="app.diagrams.net" modified="2023-12-11T08:28:19.876Z" agent="Mozilla/5.0 (Windows NT 10.0; Win64; x64) AppleWebKit/537.36 (KHTML, like Gecko) Chrome/120.0.0.0 Safari/537.36" etag="w1sy9yEhvL74-wV9_QO-" version="22.1.7" type="github">
  <diagram name="Halaman-1" id="FFYRQpfm7FogwspHMa4C">
    <mxGraphModel dx="1760" dy="892" grid="1" gridSize="10" guides="1" tooltips="1" connect="1" arrows="1" fold="1" page="1" pageScale="1" pageWidth="827" pageHeight="1169" math="0" shadow="0">
      <root>
        <mxCell id="0" />
        <mxCell id="1" parent="0" />
        <mxCell id="W6FMqaKkqbgpOwExHW5o-3" value="" style="edgeStyle=orthogonalEdgeStyle;rounded=0;orthogonalLoop=1;jettySize=auto;html=1;" edge="1" parent="1" source="W6FMqaKkqbgpOwExHW5o-1" target="W6FMqaKkqbgpOwExHW5o-2">
          <mxGeometry relative="1" as="geometry" />
        </mxCell>
        <mxCell id="W6FMqaKkqbgpOwExHW5o-1" value="START" style="strokeWidth=2;html=1;shape=mxgraph.flowchart.terminator;whiteSpace=wrap;" vertex="1" parent="1">
          <mxGeometry x="350" y="50" width="100" height="60" as="geometry" />
        </mxCell>
        <mxCell id="W6FMqaKkqbgpOwExHW5o-5" value="" style="edgeStyle=orthogonalEdgeStyle;rounded=0;orthogonalLoop=1;jettySize=auto;html=1;" edge="1" parent="1" source="W6FMqaKkqbgpOwExHW5o-2" target="W6FMqaKkqbgpOwExHW5o-4">
          <mxGeometry relative="1" as="geometry" />
        </mxCell>
        <mxCell id="W6FMqaKkqbgpOwExHW5o-2" value="Input NilaiUTS = 80" style="shape=parallelogram;perimeter=parallelogramPerimeter;whiteSpace=wrap;html=1;fixedSize=1;strokeWidth=2;" vertex="1" parent="1">
          <mxGeometry x="330" y="170" width="140" height="60" as="geometry" />
        </mxCell>
        <mxCell id="W6FMqaKkqbgpOwExHW5o-7" value="" style="edgeStyle=orthogonalEdgeStyle;rounded=0;orthogonalLoop=1;jettySize=auto;html=1;" edge="1" parent="1" source="W6FMqaKkqbgpOwExHW5o-4" target="W6FMqaKkqbgpOwExHW5o-6">
          <mxGeometry relative="1" as="geometry" />
        </mxCell>
        <mxCell id="W6FMqaKkqbgpOwExHW5o-4" value="Input NilaiUAS = 90" style="shape=parallelogram;perimeter=parallelogramPerimeter;whiteSpace=wrap;html=1;fixedSize=1;strokeWidth=2;" vertex="1" parent="1">
          <mxGeometry x="330" y="290" width="140" height="60" as="geometry" />
        </mxCell>
        <mxCell id="W6FMqaKkqbgpOwExHW5o-9" value="" style="edgeStyle=orthogonalEdgeStyle;rounded=0;orthogonalLoop=1;jettySize=auto;html=1;" edge="1" parent="1" source="W6FMqaKkqbgpOwExHW5o-6" target="W6FMqaKkqbgpOwExHW5o-8">
          <mxGeometry relative="1" as="geometry" />
        </mxCell>
        <mxCell id="W6FMqaKkqbgpOwExHW5o-6" value="Nilai Akhir = (80+90)/2" style="shape=parallelogram;perimeter=parallelogramPerimeter;whiteSpace=wrap;html=1;fixedSize=1;strokeWidth=2;" vertex="1" parent="1">
          <mxGeometry x="320" y="410" width="160" height="60" as="geometry" />
        </mxCell>
        <mxCell id="W6FMqaKkqbgpOwExHW5o-11" value="TIDAK" style="edgeStyle=orthogonalEdgeStyle;rounded=0;orthogonalLoop=1;jettySize=auto;html=1;" edge="1" parent="1" source="W6FMqaKkqbgpOwExHW5o-8" target="W6FMqaKkqbgpOwExHW5o-10">
          <mxGeometry relative="1" as="geometry" />
        </mxCell>
        <mxCell id="W6FMqaKkqbgpOwExHW5o-13" value="YA" style="edgeStyle=orthogonalEdgeStyle;rounded=0;orthogonalLoop=1;jettySize=auto;html=1;" edge="1" parent="1" source="W6FMqaKkqbgpOwExHW5o-8" target="W6FMqaKkqbgpOwExHW5o-12">
          <mxGeometry relative="1" as="geometry" />
        </mxCell>
        <mxCell id="W6FMqaKkqbgpOwExHW5o-8" value="85 &amp;gt; 60" style="rhombus;whiteSpace=wrap;html=1;strokeWidth=2;" vertex="1" parent="1">
          <mxGeometry x="320" y="520" width="160" height="80" as="geometry" />
        </mxCell>
        <mxCell id="W6FMqaKkqbgpOwExHW5o-10" value="Tidak Lulus" style="shape=parallelogram;perimeter=parallelogramPerimeter;whiteSpace=wrap;html=1;fixedSize=1;strokeWidth=2;" vertex="1" parent="1">
          <mxGeometry x="100" y="530" width="120" height="60" as="geometry" />
        </mxCell>
        <mxCell id="W6FMqaKkqbgpOwExHW5o-12" value="Lulus" style="shape=parallelogram;perimeter=parallelogramPerimeter;whiteSpace=wrap;html=1;fixedSize=1;strokeWidth=2;" vertex="1" parent="1">
          <mxGeometry x="580" y="530" width="120" height="60" as="geometry" />
        </mxCell>
        <mxCell id="W6FMqaKkqbgpOwExHW5o-14" value="END" style="strokeWidth=2;html=1;shape=mxgraph.flowchart.terminator;whiteSpace=wrap;" vertex="1" parent="1">
          <mxGeometry x="350" y="690" width="100" height="60" as="geometry" />
        </mxCell>
        <mxCell id="W6FMqaKkqbgpOwExHW5o-15" style="edgeStyle=orthogonalEdgeStyle;rounded=0;orthogonalLoop=1;jettySize=auto;html=1;exitX=0.5;exitY=1;exitDx=0;exitDy=0;entryX=0;entryY=0.5;entryDx=0;entryDy=0;entryPerimeter=0;" edge="1" parent="1" source="W6FMqaKkqbgpOwExHW5o-10" target="W6FMqaKkqbgpOwExHW5o-14">
          <mxGeometry relative="1" as="geometry" />
        </mxCell>
        <mxCell id="W6FMqaKkqbgpOwExHW5o-16" style="edgeStyle=orthogonalEdgeStyle;rounded=0;orthogonalLoop=1;jettySize=auto;html=1;exitX=0.5;exitY=1;exitDx=0;exitDy=0;entryX=1;entryY=0.5;entryDx=0;entryDy=0;entryPerimeter=0;" edge="1" parent="1" source="W6FMqaKkqbgpOwExHW5o-12" target="W6FMqaKkqbgpOwExHW5o-14">
          <mxGeometry relative="1" as="geometry" />
        </mxCell>
        <mxCell id="W6FMqaKkqbgpOwExHW5o-17" value="" style="edgeStyle=orthogonalEdgeStyle;rounded=0;orthogonalLoop=1;jettySize=auto;html=1;" edge="1" parent="1" source="W6FMqaKkqbgpOwExHW5o-18" target="W6FMqaKkqbgpOwExHW5o-20">
          <mxGeometry relative="1" as="geometry" />
        </mxCell>
        <mxCell id="W6FMqaKkqbgpOwExHW5o-18" value="START" style="strokeWidth=2;html=1;shape=mxgraph.flowchart.terminator;whiteSpace=wrap;" vertex="1" parent="1">
          <mxGeometry x="1190" y="50" width="100" height="60" as="geometry" />
        </mxCell>
        <mxCell id="W6FMqaKkqbgpOwExHW5o-19" value="" style="edgeStyle=orthogonalEdgeStyle;rounded=0;orthogonalLoop=1;jettySize=auto;html=1;" edge="1" parent="1" source="W6FMqaKkqbgpOwExHW5o-20" target="W6FMqaKkqbgpOwExHW5o-22">
          <mxGeometry relative="1" as="geometry" />
        </mxCell>
        <mxCell id="W6FMqaKkqbgpOwExHW5o-20" value="Input NilaiUTS" style="shape=parallelogram;perimeter=parallelogramPerimeter;whiteSpace=wrap;html=1;fixedSize=1;strokeWidth=2;" vertex="1" parent="1">
          <mxGeometry x="1170" y="170" width="140" height="60" as="geometry" />
        </mxCell>
        <mxCell id="W6FMqaKkqbgpOwExHW5o-21" value="" style="edgeStyle=orthogonalEdgeStyle;rounded=0;orthogonalLoop=1;jettySize=auto;html=1;" edge="1" parent="1" source="W6FMqaKkqbgpOwExHW5o-22" target="W6FMqaKkqbgpOwExHW5o-24">
          <mxGeometry relative="1" as="geometry" />
        </mxCell>
        <mxCell id="W6FMqaKkqbgpOwExHW5o-22" value="Input NilaiUAS" style="shape=parallelogram;perimeter=parallelogramPerimeter;whiteSpace=wrap;html=1;fixedSize=1;strokeWidth=2;" vertex="1" parent="1">
          <mxGeometry x="1170" y="290" width="140" height="60" as="geometry" />
        </mxCell>
        <mxCell id="W6FMqaKkqbgpOwExHW5o-23" value="" style="edgeStyle=orthogonalEdgeStyle;rounded=0;orthogonalLoop=1;jettySize=auto;html=1;" edge="1" parent="1" source="W6FMqaKkqbgpOwExHW5o-24" target="W6FMqaKkqbgpOwExHW5o-27">
          <mxGeometry relative="1" as="geometry" />
        </mxCell>
        <mxCell id="W6FMqaKkqbgpOwExHW5o-24" value="Nilai Akhir = (NilaiUTS+NilaiUAS)/2" style="shape=parallelogram;perimeter=parallelogramPerimeter;whiteSpace=wrap;html=1;fixedSize=1;strokeWidth=2;" vertex="1" parent="1">
          <mxGeometry x="1160" y="410" width="160" height="60" as="geometry" />
        </mxCell>
        <mxCell id="W6FMqaKkqbgpOwExHW5o-25" value="TIDAK" style="edgeStyle=orthogonalEdgeStyle;rounded=0;orthogonalLoop=1;jettySize=auto;html=1;" edge="1" parent="1" source="W6FMqaKkqbgpOwExHW5o-27" target="W6FMqaKkqbgpOwExHW5o-28">
          <mxGeometry relative="1" as="geometry" />
        </mxCell>
        <mxCell id="W6FMqaKkqbgpOwExHW5o-26" value="YA" style="edgeStyle=orthogonalEdgeStyle;rounded=0;orthogonalLoop=1;jettySize=auto;html=1;" edge="1" parent="1" source="W6FMqaKkqbgpOwExHW5o-27" target="W6FMqaKkqbgpOwExHW5o-29">
          <mxGeometry relative="1" as="geometry" />
        </mxCell>
        <mxCell id="W6FMqaKkqbgpOwExHW5o-27" value="Nilai Akhir &amp;gt; 60" style="rhombus;whiteSpace=wrap;html=1;strokeWidth=2;" vertex="1" parent="1">
          <mxGeometry x="1160" y="520" width="160" height="80" as="geometry" />
        </mxCell>
        <mxCell id="W6FMqaKkqbgpOwExHW5o-28" value="Tidak Lulus" style="shape=parallelogram;perimeter=parallelogramPerimeter;whiteSpace=wrap;html=1;fixedSize=1;strokeWidth=2;" vertex="1" parent="1">
          <mxGeometry x="940" y="530" width="120" height="60" as="geometry" />
        </mxCell>
        <mxCell id="W6FMqaKkqbgpOwExHW5o-29" value="Lulus" style="shape=parallelogram;perimeter=parallelogramPerimeter;whiteSpace=wrap;html=1;fixedSize=1;strokeWidth=2;" vertex="1" parent="1">
          <mxGeometry x="1420" y="530" width="120" height="60" as="geometry" />
        </mxCell>
        <mxCell id="W6FMqaKkqbgpOwExHW5o-30" value="END" style="strokeWidth=2;html=1;shape=mxgraph.flowchart.terminator;whiteSpace=wrap;" vertex="1" parent="1">
          <mxGeometry x="1190" y="690" width="100" height="60" as="geometry" />
        </mxCell>
        <mxCell id="W6FMqaKkqbgpOwExHW5o-31" style="edgeStyle=orthogonalEdgeStyle;rounded=0;orthogonalLoop=1;jettySize=auto;html=1;exitX=0.5;exitY=1;exitDx=0;exitDy=0;entryX=0;entryY=0.5;entryDx=0;entryDy=0;entryPerimeter=0;" edge="1" parent="1" source="W6FMqaKkqbgpOwExHW5o-28" target="W6FMqaKkqbgpOwExHW5o-30">
          <mxGeometry relative="1" as="geometry" />
        </mxCell>
        <mxCell id="W6FMqaKkqbgpOwExHW5o-32" style="edgeStyle=orthogonalEdgeStyle;rounded=0;orthogonalLoop=1;jettySize=auto;html=1;exitX=0.5;exitY=1;exitDx=0;exitDy=0;entryX=1;entryY=0.5;entryDx=0;entryDy=0;entryPerimeter=0;" edge="1" parent="1" source="W6FMqaKkqbgpOwExHW5o-29" target="W6FMqaKkqbgpOwExHW5o-30">
          <mxGeometry relative="1" as="geometry" />
        </mxCell>
      </root>
    </mxGraphModel>
  </diagram>
</mxfile>
